<?xml version="1.0" standalone="no"?>
<!DOCTYPE svg PUBLIC "-//W3C//DTD SVG 20010904//EN"
 "http://www.w3.org/TR/2001/REC-SVG-20010904/DTD/svg10.dtd">
<svg version="1.0" xmlns="http://www.w3.org/2000/svg"
 width="1000.000000pt" height="1000.000000pt" viewBox="0 0 1000.000000 1000.000000"
 preserveAspectRatio="xMidYMid meet">
<metadata>
Created by potrace 1.11, written by Peter Selinger 2001-2013
</metadata>
<g transform="translate(0.000000,1000.000000) scale(0.100000,-0.100000)"
fill="#000000" stroke="none">
<path d="M4445 9980 c-71 -10 -148 -21 -171 -24 -97 -11 -373 -69 -368 -77 3
-5 -2 -6 -10 -3 -17 7 -167 -26 -162 -35 2 -3 -12 -7 -33 -8 -38 -1 -342 -89
-351 -101 -3 -4 -15 -8 -27 -9 -26 -3 -276 -92 -283 -102 -3 -3 -13 -7 -23 -9
-38 -6 -217 -89 -210 -97 5 -4 3 -5 -4 -2 -23 14 -529 -245 -517 -264 3 -5 -1
-6 -9 -3 -8 3 -21 -2 -30 -10 -9 -9 -19 -16 -22 -16 -19 0 -224 -143 -218
-153 3 -6 1 -7 -5 -3 -21 13 -316 -218 -305 -238 3 -6 2 -7 -2 -3 -11 10 -156
-133 -148 -146 3 -6 1 -7 -6 -3 -6 4 -14 0 -17 -9 -5 -12 22 -46 96 -120 57
-57 108 -101 113 -98 6 3 7 2 4 -4 -8 -13 57 -76 68 -66 4 5 5 3 2 -3 -8 -14
156 -177 168 -167 4 4 5 3 2 -3 -8 -14 136 -157 148 -147 4 4 5 3 2 -3 -8 -14
156 -177 168 -167 4 4 5 3 2 -3 -8 -13 146 -167 157 -157 4 4 6 2 4 -6 -7 -30
21 -18 97 40 44 33 82 65 83 70 2 5 9 9 15 9 7 0 24 11 39 25 15 14 30 25 33
25 3 0 52 31 108 68 56 38 116 77 134 87 18 10 29 23 26 29 -3 6 -2 8 2 4 9
-8 94 37 107 56 4 6 8 8 8 4 0 -4 24 7 53 24 104 61 425 215 530 253 26 10 47
22 47 27 0 5 4 7 9 3 9 -5 90 22 101 34 3 3 14 7 26 8 11 1 34 7 50 14 16 6
36 13 44 14 24 3 104 26 115 33 5 3 16 7 25 8 8 1 71 13 140 27 69 14 172 31
230 38 146 16 490 6 715 -22 99 -12 197 -22 217 -23 21 0 38 -4 38 -8 0 -5 10
-8 23 -8 12 0 100 -16 195 -35 96 -19 179 -32 185 -28 7 3 9 2 5 -2 -5 -5 34
-19 85 -32 50 -13 156 -44 235 -69 78 -24 148 -42 154 -38 6 4 8 3 5 -3 -4 -6
20 -20 56 -33 143 -51 383 -165 511 -243 33 -20 64 -33 70 -30 6 3 8 3 4 -2
-6 -6 123 -105 137 -105 1 0 25 -20 51 -45 27 -25 55 -43 62 -40 7 3 11 1 8
-4 -3 -4 15 -27 40 -51 l46 -43 484 484 484 484 -37 32 c-20 18 -40 30 -45 27
-5 -3 -7 -1 -6 4 3 11 -173 154 -180 147 -3 -3 -12 4 -21 14 -28 32 -103 81
-114 74 -5 -3 -7 -2 -4 4 7 12 -270 197 -295 197 -9 0 -15 3 -12 7 6 11 -256
160 -268 153 -6 -4 -8 -3 -5 3 3 5 -66 46 -154 92 -87 45 -159 79 -159 74 0
-4 -4 -3 -8 3 -10 14 -317 150 -357 158 -5 1 -20 8 -33 15 -13 7 -30 10 -38 7
-8 -3 -13 -2 -10 3 7 11 -270 105 -290 97 -8 -3 -13 -2 -10 3 7 10 -110 44
-124 36 -6 -3 -10 -2 -10 3 0 9 -77 32 -120 37 -8 1 -33 7 -55 13 -22 6 -53
13 -70 16 -16 3 -79 15 -140 27 -103 21 -141 22 -630 25 -463 2 -534 0 -650
-16z"/>
<path d="M8529 8463 c-1 -4 0 -12 1 -18 1 -5 -2 -7 -6 -2 -11 10 -85 -64 -77
-77 3 -6 2 -8 -2 -4 -11 10 -176 -153 -168 -165 3 -6 2 -7 -4 -4 -11 7 -156
-136 -148 -146 3 -4 2 -5 -2 -2 -10 8 -173 -157 -166 -168 3 -6 2 -7 -4 -4
-12 8 -165 -147 -155 -158 4 -4 2 -5 -4 -2 -14 8 -157 -136 -147 -148 4 -4 3
-6 -2 -2 -6 3 -30 -14 -53 -37 l-43 -43 99 -99 c54 -55 116 -124 138 -154 22
-30 53 -73 69 -95 16 -22 33 -41 37 -43 4 -2 8 -9 8 -15 0 -7 15 -35 34 -62
62 -93 185 -329 251 -484 55 -127 166 -430 180 -491 32 -134 52 -210 56 -206
2 2 5 -10 6 -27 0 -18 13 -97 27 -177 30 -165 29 -158 46 -417 10 -157 10
-229 -1 -385 -18 -268 -17 -263 -34 -358 -8 -47 -17 -101 -20 -120 -12 -78
-87 -363 -124 -474 -23 -65 -38 -122 -36 -126 3 -5 1 -10 -4 -12 -4 -1 -25
-46 -46 -98 -144 -367 -357 -723 -603 -1006 -39 -45 -68 -85 -64 -89 4 -4 2
-5 -3 -4 -13 4 -200 -183 -196 -196 1 -5 0 -7 -4 -3 -4 4 -42 -23 -84 -60 -42
-36 -80 -70 -86 -74 -5 -4 -26 -20 -45 -36 -19 -16 -52 -40 -72 -54 -21 -14
-35 -28 -30 -32 4 -4 2 -6 -3 -4 -15 5 -246 -148 -237 -157 4 -5 2 -5 -5 -1
-7 4 -29 -4 -50 -17 -89 -56 -418 -217 -442 -217 -7 0 -9 -5 -5 -12 4 -6 3 -8
-4 -4 -6 3 -44 -7 -84 -22 -77 -30 -107 -41 -111 -41 -1 0 -36 -12 -77 -26
-81 -28 -269 -83 -310 -91 -14 -3 -54 -12 -90 -20 -90 -21 -80 -20 -225 -42
-186 -30 -350 -44 -441 -38 -118 7 -333 34 -469 57 -66 12 -131 22 -145 24
-14 1 -32 5 -40 8 -8 3 -58 15 -110 27 -52 12 -135 33 -185 47 -49 14 -94 26
-100 28 -5 1 -17 5 -25 8 -48 18 -83 26 -91 21 -5 -3 -9 0 -9 5 0 6 -7 11 -15
11 -8 0 -23 4 -33 10 -18 10 -201 80 -217 83 -5 1 -12 4 -15 7 -14 16 -132 60
-142 54 -6 -4 -8 -3 -5 3 4 6 -1 14 -11 18 -9 3 -72 35 -139 71 -68 36 -126
64 -129 64 -4 -1 -10 3 -13 8 -13 20 -177 118 -190 114 -8 -3 -11 0 -7 6 3 5
-7 18 -22 27 -54 35 -220 162 -282 217 -103 90 -131 116 -196 179 -39 38 -74
66 -79 62 -4 -5 -5 -3 -2 3 4 6 -34 58 -84 115 -50 57 -123 147 -162 199 -38
52 -77 101 -86 108 -8 6 -11 12 -7 12 4 0 -1 12 -12 27 -38 55 -148 239 -166
280 -10 23 -23 40 -29 36 -6 -3 -7 -1 -3 5 4 6 -1 26 -10 44 -10 18 -43 95
-74 171 -31 75 -60 134 -65 130 -4 -5 -5 -2 -1 4 4 7 -12 65 -35 130 -39 111
-48 137 -49 148 0 3 -8 24 -16 47 -9 24 -18 54 -20 68 -3 14 -9 39 -14 55 -10
32 -68 281 -75 325 -48 296 -65 635 -44 890 7 91 14 182 14 203 0 20 3 37 8
37 4 0 7 12 7 28 0 15 14 92 31 172 17 80 32 160 34 178 1 18 7 38 14 45 6 6
11 16 11 23 0 6 18 68 40 138 23 70 38 132 34 138 -4 6 -3 8 3 5 5 -3 26 38
47 91 21 53 51 122 67 153 15 32 29 65 31 75 2 11 6 21 9 24 4 3 28 46 54 95
126 236 317 514 462 673 39 42 49 60 41 69 -6 7 -15 10 -22 6 -6 -3 -8 -3 -4
2 10 11 -223 246 -235 238 -6 -3 -7 -2 -4 4 8 12 -547 565 -558 556 -4 -5 -5
-3 -2 3 3 6 -23 39 -59 75 l-65 64 -62 -66 c-34 -36 -84 -90 -110 -120 -27
-30 -59 -65 -73 -79 -13 -14 -24 -28 -24 -31 0 -4 -15 -22 -34 -42 -57 -61
-276 -358 -276 -375 0 -6 -3 -12 -8 -14 -17 -7 -73 -108 -66 -119 4 -7 3 -9
-3 -6 -17 11 -179 -275 -167 -294 4 -7 3 -9 -3 -6 -13 8 -36 -41 -27 -55 4 -6
2 -8 -3 -5 -26 17 -292 -665 -279 -716 2 -9 1 -15 -4 -12 -6 4 -73 -246 -86
-323 -2 -15 -13 -72 -24 -127 -11 -55 -23 -120 -26 -145 -2 -25 -9 -70 -14
-100 -5 -30 -9 -345 -9 -700 -1 -665 1 -699 44 -945 3 -16 10 -59 16 -95 7
-36 16 -70 20 -76 5 -6 6 -13 3 -17 -9 -8 38 -207 47 -201 5 3 6 -1 3 -9 -8
-23 60 -269 101 -362 7 -16 18 -46 25 -65 25 -66 104 -255 109 -260 3 -3 7
-12 9 -20 2 -8 26 -61 53 -118 27 -57 49 -107 49 -112 0 -6 4 -10 8 -10 5 0 9
-6 9 -12 0 -23 69 -138 78 -130 4 4 5 1 1 -6 -9 -14 43 -114 55 -106 5 3 7 -1
4 -8 -3 -7 30 -72 73 -143 120 -199 143 -235 153 -235 5 0 8 -4 7 -9 -6 -22
288 -414 304 -405 4 3 7 1 6 -4 -3 -11 38 -67 94 -127 20 -22 49 -55 63 -73
15 -17 32 -29 37 -25 6 3 8 2 5 -4 -7 -11 347 -363 364 -363 6 0 22 -13 37
-28 92 -97 531 -410 554 -395 6 3 8 2 5 -4 -8 -13 70 -56 85 -47 6 4 8 3 4 -4
-12 -20 490 -279 520 -268 8 3 13 2 10 -3 -10 -16 395 -168 415 -155 7 4 9 3
6 -3 -5 -9 32 -22 138 -50 6 -1 42 -11 80 -23 114 -33 278 -71 283 -65 3 3 10
1 16 -4 17 -14 383 -72 467 -74 42 -1 75 -5 73 -8 -11 -19 546 -26 766 -9 237
18 266 21 438 46 282 40 533 95 797 176 113 34 375 127 390 138 6 4 27 13 48
19 20 7 37 17 37 22 0 6 4 8 9 4 12 -7 222 91 233 108 4 7 8 9 8 4 0 -18 427
220 438 246 2 4 9 7 16 7 7 0 25 11 40 25 15 14 31 25 35 25 20 0 221 152 215
162 -4 7 -3 8 5 4 11 -7 131 80 131 95 0 5 6 9 14 9 8 0 25 13 38 29 13 15 30
30 36 32 12 4 136 115 254 228 37 36 64 69 61 74 -3 6 -2 7 4 4 15 -9 77 59
68 74 -5 7 -4 10 3 5 20 -12 338 357 325 377 -3 6 -2 7 4 4 10 -6 153 182 153
202 0 6 4 11 9 11 11 0 171 243 178 270 3 11 8 20 12 20 13 0 42 60 35 72 -4
6 -3 8 3 5 10 -7 130 200 125 215 -1 5 2 8 6 8 20 0 236 484 227 507 -2 8 -1
12 3 9 14 -8 195 517 206 599 2 11 6 27 9 35 26 66 103 483 106 570 0 8 5 60
10 115 13 127 13 579 1 708 -21 213 -38 353 -47 377 -3 8 -7 26 -8 40 -8 70
-33 188 -72 345 -39 157 -45 177 -115 395 -88 270 -280 726 -301 713 -6 -3 -7
-1 -3 6 7 11 -131 289 -160 322 -8 8 -14 19 -14 23 0 9 -129 228 -139 236 -3
3 -15 22 -25 42 -10 21 -23 35 -29 31 -6 -3 -7 -2 -4 4 8 13 -67 125 -78 116
-4 -5 -5 -3 -2 3 10 18 -184 289 -198 276 -5 -4 -6 -2 -2 3 3 6 -36 62 -86
125 -86 105 -115 134 -118 113z"/>
<path d="M2035 6940 c10 -57 13 -75 15 -75 1 0 3 -9 5 -20 2 -11 7 -36 10 -55
4 -19 9 -44 11 -55 2 -11 15 -76 29 -145 14 -69 28 -141 31 -160 2 -19 7 -43
10 -52 6 -20 15 -63 19 -93 2 -11 4 -20 5 -20 1 0 3 -9 4 -20 2 -11 6 -33 10
-50 9 -41 15 -72 22 -119 3 -22 7 -43 9 -46 2 -3 6 -21 9 -40 3 -19 8 -46 11
-60 3 -14 8 -38 10 -55 3 -16 8 -37 10 -45 2 -8 7 -31 10 -50 3 -19 8 -43 11
-53 3 -10 7 -30 9 -45 2 -15 11 -61 20 -102 9 -41 19 -91 22 -110 2 -19 8 -51
13 -70 5 -19 12 -51 15 -70 3 -19 12 -66 20 -105 8 -38 17 -81 19 -95 3 -14 7
-36 10 -50 13 -59 27 -129 32 -156 2 -16 12 -63 20 -104 9 -41 17 -84 19 -95
2 -11 6 -32 9 -47 3 -16 8 -38 10 -50 3 -13 8 -34 11 -48 3 -14 7 -38 10 -55
2 -16 6 -39 9 -50 13 -58 68 -334 71 -359 2 -15 7 -36 10 -46 3 -10 7 -31 10
-46 2 -16 10 -63 19 -104 8 -41 17 -87 20 -103 3 -15 7 -35 10 -45 3 -9 7 -34
11 -56 3 -21 7 -41 9 -45 2 -3 7 -23 10 -44 3 -21 13 -71 21 -110 8 -40 16
-84 19 -100 3 -15 7 -35 10 -45 4 -15 15 -71 20 -112 2 -8 5 -24 9 -35 4 -11
9 -36 11 -55 3 -19 8 -44 10 -55 3 -11 9 -36 14 -55 l8 -35 552 -2 553 -1 10
26 c5 15 12 34 16 42 3 8 7 17 8 20 1 3 7 19 14 35 7 17 14 35 15 40 2 6 8 23
14 38 7 16 12 30 12 31 0 2 8 21 17 42 9 22 18 42 19 47 1 4 3 9 4 12 1 3 3 8
5 13 1 4 5 14 8 22 4 8 22 58 42 110 19 52 40 104 45 115 5 11 11 27 12 35 2
8 5 17 8 20 3 3 27 64 54 135 27 72 54 144 61 160 7 17 18 46 25 65 7 19 19
49 25 65 7 17 27 68 45 115 17 47 36 94 41 105 17 39 170 440 174 455 2 8 4
16 5 18 2 1 3 5 4 10 1 4 7 16 13 27 5 11 18 45 28 75 10 30 22 64 28 75 6 11
12 27 14 35 1 9 9 32 18 53 8 20 15 39 15 42 0 3 7 19 15 35 8 16 15 31 15 32
-2 4 10 37 20 63 16 38 113 323 115 335 0 3 3 10 6 15 3 6 14 40 25 78 10 37
22 67 26 67 7 0 48 -104 48 -124 0 -7 3 -15 6 -19 5 -4 41 -102 74 -197 4 -14
23 -63 40 -110 27 -71 37 -101 55 -160 1 -3 9 -21 17 -40 21 -48 31 -73 33
-85 4 -15 113 -306 124 -330 19 -40 46 -120 43 -127 -1 -5 3 -8 8 -8 6 0 10
-7 10 -15 0 -13 51 -153 81 -220 4 -11 24 -63 44 -115 20 -52 41 -106 47 -120
6 -14 13 -34 15 -44 2 -11 7 -24 12 -30 5 -6 14 -29 21 -51 7 -22 20 -56 28
-75 9 -19 16 -37 17 -40 1 -6 62 -163 78 -200 6 -14 11 -27 11 -30 4 -18 80
-210 92 -232 8 -15 15 -31 16 -35 1 -13 9 -36 24 -70 8 -17 14 -34 14 -37 0
-4 7 -23 16 -44 10 -20 18 -41 18 -47 1 -5 9 -27 19 -49 9 -21 17 -42 17 -47
0 -5 239 -9 554 -8 l555 0 7 32 c4 18 8 34 9 37 1 3 5 25 9 50 5 25 11 49 14
54 3 6 6 19 7 30 2 19 6 40 20 106 3 14 7 36 10 50 2 14 13 70 25 125 25 122
30 148 45 230 2 11 4 20 5 20 2 0 6 18 13 60 3 17 16 84 30 150 23 111 35 170
42 220 2 11 4 20 5 20 2 0 4 9 5 20 3 21 25 127 40 195 4 14 8 34 10 45 16 96
23 130 25 130 1 0 3 9 5 20 4 28 14 80 33 165 6 25 13 61 16 80 7 44 14 77 20
98 3 9 7 33 10 52 5 33 10 59 20 105 17 80 80 385 83 405 3 14 15 77 28 140
13 63 27 131 30 150 3 19 10 51 15 70 5 19 11 51 14 70 7 45 14 77 20 98 3 9
8 35 12 57 3 22 10 58 15 80 10 43 14 59 24 120 3 22 8 48 11 57 5 16 10 41
19 88 18 98 65 329 69 341 6 16 15 67 21 117 2 18 7 42 10 53 6 19 -3 19 -481
17 l-488 -3 -7 -35 c-4 -19 -10 -51 -13 -70 -10 -63 -16 -95 -22 -120 -3 -14
-8 -38 -10 -55 -3 -16 -7 -40 -9 -52 -3 -13 -7 -33 -9 -45 -2 -13 -7 -36 -10
-53 -3 -16 -10 -55 -16 -85 -6 -30 -12 -66 -15 -80 -6 -32 -35 -187 -40 -220
-2 -14 -7 -36 -10 -50 -5 -27 -24 -128 -31 -170 -8 -48 -45 -245 -51 -275 -4
-16 -8 -39 -9 -50 -1 -11 -5 -31 -8 -45 -4 -22 -13 -71 -31 -175 -3 -16 -8
-37 -10 -45 -2 -8 -7 -37 -11 -65 -3 -27 -9 -54 -12 -60 -3 -5 -7 -23 -8 -40
-3 -31 -9 -72 -18 -115 -7 -29 -23 -121 -29 -165 -4 -27 -10 -59 -33 -185 -3
-19 -8 -46 -10 -60 -3 -24 -10 -64 -20 -120 -8 -47 -17 -115 -18 -142 -1 -26
-24 -41 -27 -18 -2 13 -6 29 -9 35 -1 3 -4 10 -5 15 -1 6 -3 11 -5 13 -1 1 -3
9 -5 17 -3 14 -40 129 -52 160 -3 8 -7 20 -9 25 -1 6 -35 102 -74 215 -40 113
-75 216 -80 230 -5 14 -17 49 -28 78 -11 28 -18 52 -16 52 2 0 -5 17 -16 37
-11 21 -20 45 -20 54 0 8 -3 19 -7 23 -4 3 -8 12 -9 19 -3 13 -109 308 -124
342 -11 26 -22 58 -25 70 -2 6 -19 55 -40 110 -20 55 -48 132 -62 170 -13 39
-29 79 -33 90 -5 11 -16 40 -24 65 -12 40 -26 78 -52 145 -4 11 -8 22 -9 25
-1 3 -7 18 -13 33 -7 16 -12 33 -12 38 0 5 -4 17 -10 27 -5 9 -16 37 -24 62
-8 25 -26 77 -41 115 -15 39 -28 75 -29 80 -2 6 -6 17 -9 25 -3 8 -15 42 -27
75 -11 33 -28 76 -37 95 -9 19 -16 41 -16 48 0 9 -111 12 -522 12 -406 0 -525
-3 -533 -12 -8 -11 -137 -349 -146 -383 -2 -5 -6 -17 -9 -25 -4 -8 -27 -71
-52 -140 -25 -69 -48 -132 -52 -140 -3 -8 -7 -19 -9 -25 -1 -5 -15 -41 -29
-80 -15 -38 -28 -74 -29 -80 -2 -5 -7 -19 -11 -30 -35 -88 -68 -182 -68 -192
0 -7 -5 -13 -10 -13 -6 0 -8 -2 -5 -6 3 -3 -10 -44 -29 -92 -19 -48 -36 -94
-38 -102 -2 -8 -4 -15 -5 -15 -1 0 -3 -7 -5 -15 -6 -23 -54 -152 -65 -175 -6
-11 -12 -29 -14 -40 -2 -11 -11 -36 -19 -55 -16 -36 -75 -193 -82 -220 -2 -8
-11 -33 -19 -55 -29 -77 -138 -390 -141 -405 -2 -8 -4 -16 -5 -17 -2 -2 -3 -6
-5 -10 -1 -5 -4 -15 -8 -23 -11 -30 -49 -145 -54 -165 -2 -11 -5 -24 -7 -30
-2 -5 -6 -22 -11 -37 -4 -16 -11 -28 -16 -28 -10 0 -11 2 -14 50 -2 19 -4 35
-5 35 -3 0 -9 36 -15 90 -3 28 -8 57 -10 65 -2 8 -7 38 -11 65 -7 58 -10 77
-19 125 -3 19 -8 47 -10 63 -3 15 -7 39 -10 55 -8 49 -15 87 -20 112 -3 14 -8
39 -10 55 -8 61 -14 97 -25 153 -6 31 -13 66 -15 77 -6 38 -34 190 -51 275 -9
47 -17 92 -18 100 -1 8 -5 31 -9 50 -4 19 -9 46 -11 60 -3 14 -7 35 -10 46 -2
12 -7 39 -10 60 -3 22 -8 50 -11 64 -7 34 -13 65 -25 130 -6 30 -12 65 -14 76
-2 12 -7 37 -10 55 -3 19 -8 45 -11 59 -3 14 -9 50 -15 80 -6 30 -12 64 -14
75 -2 11 -7 40 -11 65 -4 25 -9 54 -12 65 -2 11 -6 31 -9 45 -2 14 -7 39 -11
55 -9 43 -12 55 -18 100 -3 22 -9 56 -13 75 -10 41 -11 44 -19 93 l-6 37 -499
0 -500 0 7 -40z"/>
</g>
</svg>
